<svg width="24" height="24" viewBox="0 0 24 24" fill="none" xmlns="http://www.w3.org/2000/svg">
<g clip-path="url(#clip0_5487_4611)">
<path d="M16.4922 13.0262C17.8466 13.9457 18.7957 15.1914 18.7957 16.8523V19.8182H22.7503V16.8523C22.7503 14.697 19.2208 13.4217 16.4922 13.0262Z" />
<path d="M14.8413 11.9091C17.0261 11.9091 18.7958 10.1394 18.7958 7.95455C18.7958 5.76966 17.0261 4 14.8413 4C14.3766 4 13.9416 4.09886 13.5264 4.23727C14.3469 5.25557 14.8413 6.55068 14.8413 7.95455C14.8413 9.35841 14.3469 10.6535 13.5264 11.6718C13.9416 11.8102 14.3766 11.9091 14.8413 11.9091Z" />
<path d="M8.90865 11.9091C11.0935 11.9091 12.8632 10.1394 12.8632 7.95455C12.8632 5.76966 11.0935 4 8.90865 4C6.72376 4 4.9541 5.76966 4.9541 7.95455C4.9541 10.1394 6.72376 11.9091 8.90865 11.9091ZM8.90865 5.97727C9.99615 5.97727 10.8859 6.86705 10.8859 7.95455C10.8859 9.04205 9.99615 9.93182 8.90865 9.93182C7.82115 9.93182 6.93137 9.04205 6.93137 7.95455C6.93137 6.86705 7.82115 5.97727 8.90865 5.97727Z" />
<path d="M8.90909 12.8977C6.26943 12.8977 1 14.2225 1 16.8523V19.8182H16.8182V16.8523C16.8182 14.2225 11.5488 12.8977 8.90909 12.8977ZM14.8409 17.8409H2.97727V16.8621C3.175 16.1503 6.23977 14.875 8.90909 14.875C11.5784 14.875 14.6432 16.1503 14.8409 16.8523V17.8409Z" />
</g>
<defs>
<clipPath id="clip0_5487_4611">
<rect width="24" height="24" />
</clipPath>
</defs>
</svg>
